<svg version="1.1" xmlns="http://www.w3.org/2000/svg" xmlns:xlink="http://www.w3.org/1999/xlink" width="600.60961" height="424.11411" viewBox="0,0,600.60961,424.11411"><g transform="translate(112.10661,29.05405)"><g data-paper-data="{&quot;isPaintingLayer&quot;:true}" fill-rule="nonzero" stroke="none" stroke-linecap="butt" stroke-linejoin="miter" stroke-miterlimit="10" stroke-dasharray="" stroke-dashoffset="0" style="mix-blend-mode: normal"><path d="M-112.10661,395.06006v-424.11411h600.60961v424.11411z" fill="#59ff5e" stroke-width="0"/><text transform="translate(18.83771,189.67597) scale(0.61162,0.68406)" font-size="40" xml:space="preserve" fill="#000000" fill-rule="nonzero" stroke="none" stroke-width="1" stroke-linecap="butt" stroke-linejoin="miter" stroke-miterlimit="10" stroke-dasharray="" stroke-dashoffset="0" font-family="Pixel" font-weight="normal" text-anchor="start" style="mix-blend-mode: normal"><tspan x="0" dy="0">Pet Green Crewmate Simulator</tspan></text><path d="M78.31733,341.43343c0.84867,0.47664 1.85603,0.58723 2.78405,0.88084c3.04213,2.00806 6.58234,4.54178 9.91301,5.9595c1.26457,0.53828 2.73788,0.45599 4,1c1.01277,0.43654 1.65625,1.57832 2.71308,1.89356c1.04685,0.31226 2.18323,-0.09116 3.27554,-0.10727c3.1994,-0.04717 6.93981,0.56252 9.98862,-0.78629c1.19006,-0.52649 2.05302,-1.69302 3.28692,-2.10644c0.94819,-0.31769 2.04211,0.28714 3,0c2.60438,-0.7807 6.34782,-5.39724 7.47867,-7.70565c0.49934,-1.0193 0.53662,-2.2418 1.11916,-3.21595c0.47443,-0.79335 1.0729,-1.52909 1.60749,-2.29329c-1.02451,-0.45616 -2.0534,-0.89182 -3.08373,-1.30727c-0.0208,0.01301 -0.04146,0.02632 -0.06197,0.03995c-1.07354,0.71295 -1.57817,2.33067 -2.73089,2.86715c-5.38861,2.50788 -14.53239,2.66606 -20.25051,1.66395c-3.37686,-0.5918 -6.24302,-3.14191 -9.47667,-4.38065c-5.68549,-2.17799 -11.24801,-3.71012 -16.78615,-6.43938c-0.19678,-0.09718 -0.39552,-0.19414 -0.596,-0.29105c-0.08078,4.64226 -1.03842,11.60002 3.81938,14.32829zM132.12963,337.87438c-0.47757,0.81291 -1.51364,1.19232 -2,2c-0.50212,0.83385 -0.43914,1.91668 -0.88084,2.78405c-1.90109,3.73318 -6.47719,8.8446 -10.52133,10.29435c-0.94134,0.33745 -2.05078,-0.31461 -3,0c-1.04684,0.34697 -1.69494,1.4697 -2.71308,1.89356c-3.87514,1.61322 -7.93966,1.26378 -12.01138,1.21371c-1.57511,-0.01937 -3.20613,0.31228 -4.72446,-0.10727c-1.25432,-0.34659 -2.08984,-1.59612 -3.28692,-2.10644c-1.26428,-0.53897 -2.738,-0.45571 -4,-1c-3.38682,-1.4607 -7.00961,-3.96642 -10.08699,-6.0405c-1.07198,-0.37305 -2.25447,-0.51594 -3.21595,-1.11916c-6.8355,-4.28854 -6.18567,-12.24681 -6.18567,-19.12663v-1.83794c-5.15183,-2.56533 -10.24779,-5.84908 -12.05996,-12.12571c-1.39209,-4.82166 0.9439,-11.47619 2.52219,-15.90903c2.84755,-7.99774 7.18878,-14.76486 10.3753,-22.44337c0.90873,-2.18974 1.03275,-4.75431 2.10686,-6.84831c1.89634,-3.69698 5.10954,-6.36572 8.04024,-9.09005c5.9947,-5.57257 14.85476,-6.16652 22.19284,-7.53474c0,0 1.28089,-0.23876 2.31243,0.52841c5.65486,-4.21843 11.42947,-7.69816 17.61773,-11.15874c0,0 2.73524,-1.52959 4.10286,1.52959c1.36762,3.05919 -1.36762,4.58878 -1.36762,4.58878c-7.12997,3.98719 -13.56978,8.06576 -20.10018,13.16829c-1.11321,0.8698 -2.54601,1.30099 -3.43568,2.44841c-1.63738,2.11171 -2.48787,6.91835 -2.98263,9.43668c-1.5802,8.04317 -3.61314,15.63982 -3.59521,23.87561c0.00508,2.33367 -0.95931,8.18087 0.59544,10.23691c3.97989,5.26311 12.04208,4.22996 17.58058,4.13467c-0.11509,-0.10996 -0.24212,-0.20139 -0.38611,-0.26678c-0.92517,-0.42009 -1.99285,0.14413 -2.98929,0.21619l-4.14691,-1.49946c0,0 -2.90116,-1.08159 -1.93411,-4.32635c0.96705,-3.24476 3.86822,-2.16317 3.86822,-2.16317l3.19252,1.23676c1.45005,0.07206 3.00056,-0.38133 4.35014,0.21619c1.21816,0.53934 1.76436,2.22563 2.88393,2.98668c2.2037,1.49803 5.12167,1.26437 7.33942,2.73622c0.5782,0.38374 1.01775,0.76959 1.37739,1.15185c0.48296,-0.06307 0.95641,-0.14531 1.41798,-0.25039c8.86736,-2.01889 17.2869,-9.94517 24.48436,-15.69607c0.64052,-0.51178 7.76227,-6.18408 7.90829,-6.37723c1.13156,-1.4969 1.27466,-3.70201 2.31347,-5.28078c1.27487,-1.93754 3.09206,-3.34978 4.53749,-5.13125c0.11508,-0.14185 0.22823,-0.2841 0.3395,-0.42675l-2.39614,0.03329c0,0 -3.05809,0 -3.05809,-3.42028l-0.00004,0.00008c0,-3.42028 3.05809,-3.42028 3.05809,-3.42028l4.15957,0.04416c0.66834,0.24916 1.33788,0.45703 2.00885,0.62997c1.58899,-3.18999 2.8774,-6.51605 4.64257,-9.91613c0.62193,-1.19796 1.75477,-2.07072 2.16423,-3.37808c0.30708,-0.98047 -0.11365,-2.07449 -0.13122,-3.11319c-0.03881,-2.29525 0.28334,-7.1536 -0.76149,-9.04824c-1.87165,-3.39397 -5.66997,-4.83632 -8.49162,-7.2739c-11.88071,-5.29292 -24.60793,-6.88832 -37.38296,-5.56494c-5.64364,0.58463 -12.60799,1.73924 -16.64474,6.52015l0.89569,0.31772c0,0 0,3.42028 -3.05809,3.42028c-3.05809,0 -3.05809,-3.42028 -3.05809,-3.42028l0.89569,-5.15472c5.44025,-5.85665 13.01933,-7.69602 20.39265,-8.49321c14.07089,-1.52132 27.96311,0.4758 40.99032,6.43317c1.34669,1.142 9.9325,8.23615 10.70136,9.68813c1.60798,3.03668 2.63361,13.75858 1.50626,17.6713c-1.07799,3.7414 -3.58564,6.76935 -5.16221,10.28254c-0.27465,0.61204 -0.55518,1.22267 -0.84263,1.83022c2.61939,0.04903 5.27174,-0.10685 7.9709,-0.10685c7.97142,0 15.94283,0 23.91426,0c-0.00687,-0.04 -0.01338,-0.0806 -0.01952,-0.12176c-0.50275,-3.37373 2.51374,-3.93603 2.51374,-3.93603c3.95438,-0.72755 7.71597,-2.44702 11.63163,-3.40127c5.82622,-1.41987 6.4048,-0.25217 11.88372,-0.74c7.74742,-0.6898 15.51939,-2.26952 23.28813,-2.73974c3.31788,-0.20082 6.6521,-0.24064 9.96821,-0.00609c1.82577,0.12914 4.05124,-0.66269 5.45782,0.6456c3.52267,3.27651 2.93457,10.93812 0.59734,14.4916c-1.1948,1.81655 -3.79381,1.74684 -5.31893,3.22198c-1.51314,1.46356 -2.07997,3.90739 -3.58105,5.3864c-4.75782,4.68787 -11.48028,5.86405 -17.03839,8.93347c-6.22129,1.03521 -12.4354,1.84709 -18.61628,2.84518c-3.4179,0.55192 -6.62589,2.37556 -10.06224,2.75801c-1.55656,0.17324 -3.14143,0.24689 -4.73893,0.2645c-0.27193,0.8976 -0.80586,1.49477 -0.80586,1.49477c-3.75231,4.08657 -3.24778,7.92624 -5.53818,12.7806c-2.7626,5.85514 -4.48527,5.37994 -7.63531,10.11386c-2.13625,3.21038 -2.72431,7.47259 -4.7732,10.75341c-2.01593,3.22806 -5.23613,5.27686 -8.02682,7.67727c-1.02971,0.8857 -1.65629,2.35903 -2.81661,3.0122c-1.68338,0.94761 -3.67131,0.97828 -5.45878,1.64615c-2.0384,0.76163 -3.89531,2.15639 -6.00129,2.63577c-4.79445,1.09137 -12.40384,1.00028 -17.33123,0.24076c-5.45585,-0.84098 -10.50294,-3.80247 -15.65782,-5.79945c-3.08074,-2.27571 -6.38198,-4.29649 -9.78859,-6.07463c-0.08339,0.18647 -0.1756,0.36883 -0.27953,0.54574zM216.33266,274.66638c0,2.03646 -1.08412,2.86039 -1.96138,3.19374c-0.34044,0.14633 -0.7102,0.22653 -1.09672,0.22653c-8.9704,0 -17.94082,0 -26.91122,0c-3.90126,0 -7.77481,0.30364 -11.57909,-0.0734c-0.813,1.28502 -1.68313,2.52073 -2.62299,3.68702c-1.28988,1.60061 -2.97286,2.80504 -4.1121,4.54274c-1.12023,1.70871 -1.33837,4.06327 -2.57948,5.6641c-0.81814,1.05526 -7.32744,6.18543 -9.04905,7.56055c-6.41323,5.12256 -13.24747,10.98346 -20.52555,14.47815c-0.19732,0.09474 -0.39464,0.18612 -0.59196,0.27422c0.40631,0.14637 0.73672,0.40556 0.94186,0.85787c2.53017,5.57876 -1.56592,8.06661 -3.84032,11.08139c-0.66233,0.87794 -1.22633,1.85757 -1.8068,2.8178c5.00741,2.26616 9.91829,4.98683 14.30448,8.29087c4.51756,1.68548 8.94036,4.43589 13.69988,5.14543c4.37343,0.65199 11.07027,0.85345 15.34785,-0.15064c1.88728,-0.44301 3.52299,-1.77596 5.35619,-2.44525c1.40551,-0.51315 3.00244,-0.35561 4.32712,-1.09007c0.90339,-0.50087 1.28282,-1.76448 2.07634,-2.46024c2.24235,-1.96611 5.0706,-3.35301 6.65203,-6.00383c2.06242,-3.45708 2.81653,-7.7839 5.0127,-11.13635c1.52293,-2.32473 5.83199,-6.40522 7.04354,-9.03968c0.72046,-1.56661 0.53009,-3.49681 1.09549,-5.1411c0.76595,-2.22749 1.85602,-4.33311 3.15119,-6.26194c-0.4921,-0.01568 -0.98304,-0.03017 -1.47239,-0.04221c-0.42912,0.71299 -1.177,1.33429 -2.48037,1.33429c-3.05809,0 -3.05809,-3.42028 -3.05809,-3.42028l3.05809,-4.78839c5.09889,0 10.4692,0.5696 15.53432,0.02482c3.38904,-0.36451 6.54806,-2.18356 9.91668,-2.7363c5.84397,-0.95892 11.78261,-1.70829 17.67373,-2.60537c3.3011,-1.87122 6.92801,-2.92164 10.32996,-4.55133c1.57887,-0.75635 3.17587,-1.62693 4.43583,-2.93252c1.52358,-1.57877 2.17493,-4.0552 3.75837,-5.55848c1.24502,-1.18199 3.29534,-0.97808 4.46697,-2.25046c0.6971,-0.75704 0.415,-2.12528 0.55284,-3.20102c0.0618,-0.48233 0.44944,-1.28121 0.0445,-1.46092c-0.6098,-0.27063 -1.22907,0.56972 -1.88161,0.6456c-1.21668,0.14149 -2.44647,0.00078 -3.66971,0c-3.5903,-0.00227 -7.19073,0.1674 -10.75539,0.64643c-6.08692,0.81799 -12.2719,1.53829 -18.37338,2.08018c-4.06531,0.36106 -6.97105,-0.42142 -11.02017,0.59763c-3.22246,0.81102 -6.35587,2.06277 -9.56548,2.92089c0.10938,0.36187 0.17332,0.78491 0.17332,1.27946zM114.18897,316.39373c-7.58424,-0.01903 -17.84138,0.91247 -23.22197,-6.81662c-2.7322,-3.92475 -1.8602,-9.84451 -1.85104,-14.38907c0.0177,-8.77651 2.02437,-16.82755 3.74422,-25.37635c0.75754,-3.76548 1.52316,-7.82244 3.48026,-11.13395c-4.42485,0.76767 -8.92664,1.97535 -12.05173,4.98709c-2.35522,2.2698 -5.14846,4.27552 -6.63861,7.32727c-0.91987,1.88386 -0.95404,4.18339 -1.76136,6.13073c-3.13555,7.56328 -7.4033,14.18035 -10.22123,22.03823c-1.01212,2.82232 -3.33935,8.38727 -2.37076,11.45317c1.93407,6.12191 9.7207,8.2807 14.26679,10.52395c5.38282,2.6619 10.76973,4.10285 16.30061,6.22687c2.98104,1.14481 5.57939,3.64222 8.69903,4.14511c4.15963,0.67054 12.01132,0.96296 16.05405,-0.944c-0.09114,-0.33827 -0.14358,-0.72749 -0.14358,-1.17537c0,-3.42028 3.05809,-3.42028 3.05809,-3.42028l2.19029,0.17551c0.33504,0.12569 0.67053,0.25316 1.00633,0.38243c1.32511,-1.29821 1.93513,-3.32272 3.05579,-4.85109c0.36207,-0.49378 0.74789,-0.9758 1.16776,-1.41304c-1.75267,-0.65089 -3.04921,-2.2908 -4.42984,-3.78739c-3.37667,0.12647 -6.80531,-0.08319 -10.33313,-0.08319z" fill="#000000" stroke-width="0.5"/><text transform="translate(278.003,133) scale(0.5,0.5)" font-size="40" xml:space="preserve" fill="#000000" fill-rule="nonzero" stroke="none" stroke-width="1" stroke-linecap="butt" stroke-linejoin="miter" stroke-miterlimit="10" stroke-dasharray="" stroke-dashoffset="0" font-family="Pixel" font-weight="normal" text-anchor="start" style="mix-blend-mode: normal"><tspan x="0" dy="0">(Remastered)</tspan></text><text transform="translate(223.003,234.56006) scale(0.5,0.5)" font-size="40" xml:space="preserve" fill="#000000" fill-rule="nonzero" stroke="none" stroke-width="1" stroke-linecap="butt" stroke-linejoin="miter" stroke-miterlimit="10" stroke-dasharray="" stroke-dashoffset="0" font-family="Pixel" font-weight="normal" text-anchor="start" style="mix-blend-mode: normal"><tspan x="0" dy="0">3 new updates</tspan></text><text transform="translate(71.003,119.56006) scale(0.5,0.5)" font-size="40" xml:space="preserve" fill="#000000" fill-rule="nonzero" stroke="none" stroke-width="1" stroke-linecap="butt" stroke-linejoin="miter" stroke-miterlimit="10" stroke-dasharray="" stroke-dashoffset="0" font-family="Pixel" font-weight="normal" text-anchor="start" style="mix-blend-mode: normal"><tspan x="0" dy="0">I hate this game</tspan></text><text transform="translate(260.003,258.56006) scale(0.5,0.5)" font-size="40" xml:space="preserve" fill="#000000" fill-rule="nonzero" stroke="none" stroke-width="1" stroke-linecap="butt" stroke-linejoin="miter" stroke-miterlimit="10" stroke-dasharray="" stroke-dashoffset="0" font-family="Pixel" font-weight="normal" text-anchor="start" style="mix-blend-mode: normal"><tspan x="0" dy="0">+ Achievements!</tspan></text><text transform="translate(228.003,321.56006) scale(0.5,0.5)" font-size="40" xml:space="preserve" fill="#000000" fill-rule="nonzero" stroke="none" stroke-width="1" stroke-linecap="butt" stroke-linejoin="miter" stroke-miterlimit="10" stroke-dasharray="" stroke-dashoffset="0" font-family="Sans Serif" font-weight="normal" text-anchor="start" style="mix-blend-mode: normal"><tspan x="0" dy="0">this is a dabbing dude</tspan></text></g></g></svg>