<svg version="1.1" xmlns="http://www.w3.org/2000/svg" xmlns:xlink="http://www.w3.org/1999/xlink" width="481.98198" height="360.36036" viewBox="0,0,481.98198,360.36036"><g transform="translate(0.99099,0.18018)"><g data-paper-data="{&quot;isPaintingLayer&quot;:true}" fill-rule="nonzero" stroke="none" stroke-linecap="butt" stroke-linejoin="miter" stroke-miterlimit="10" stroke-dasharray="" stroke-dashoffset="0" style="mix-blend-mode: normal"><path d="M-0.99099,360.18018v-360.36036h481.98198v360.36036z" fill="#66ff77" stroke-width="0"/><text transform="translate(163.42342,33.6036) scale(0.5,0.5)" font-size="40" xml:space="preserve" fill="#000000" fill-rule="nonzero" stroke="none" stroke-width="1" stroke-linecap="butt" stroke-linejoin="miter" stroke-miterlimit="10" stroke-dasharray="" stroke-dashoffset="0" font-family="Pixel" font-weight="normal" text-anchor="start" style="mix-blend-mode: normal"><tspan x="0" dy="0">Music Menu</tspan></text><text transform="translate(20.78679,76.64865) scale(0.5,0.5)" font-size="40" xml:space="preserve" fill="#000000" fill-rule="nonzero" stroke="none" stroke-width="1" stroke-linecap="butt" stroke-linejoin="miter" stroke-miterlimit="10" stroke-dasharray="" stroke-dashoffset="0" font-family="Pixel" font-weight="normal" text-anchor="start" style="mix-blend-mode: normal"><tspan x="0" dy="0">Press f for respect</tspan></text><text transform="translate(21.02702,285.63063) scale(0.5,0.5)" font-size="40" xml:space="preserve" fill="#000000" fill-rule="nonzero" stroke="none" stroke-width="1" stroke-linecap="butt" stroke-linejoin="miter" stroke-miterlimit="10" stroke-dasharray="" stroke-dashoffset="0" font-family="Pixel" font-weight="normal" text-anchor="start" style="mix-blend-mode: normal"><tspan x="0" dy="0"> L for Fishy on me</tspan></text><text transform="translate(18.3033,113.21922) scale(0.5,0.5)" font-size="40" xml:space="preserve" fill="#000000" fill-rule="nonzero" stroke="none" stroke-width="1" stroke-linecap="butt" stroke-linejoin="miter" stroke-miterlimit="10" stroke-dasharray="" stroke-dashoffset="0" font-family="Pixel" font-weight="normal" text-anchor="start" style="mix-blend-mode: normal"><tspan x="0" dy="0"> D for Deja vu</tspan></text><text transform="translate(14.82282,148.28529) scale(0.5,0.5)" font-size="40" xml:space="preserve" fill="#000000" fill-rule="nonzero" stroke="none" stroke-width="1" stroke-linecap="butt" stroke-linejoin="miter" stroke-miterlimit="10" stroke-dasharray="" stroke-dashoffset="0" font-family="Pixel" font-weight="normal" text-anchor="start" style="mix-blend-mode: normal"><tspan x="0" dy="0"> G for giorno's theme</tspan></text><text transform="translate(16.03604,213.21322) scale(0.5,0.5)" font-size="40" xml:space="preserve" fill="#000000" fill-rule="nonzero" stroke="none" stroke-width="1" stroke-linecap="butt" stroke-linejoin="miter" stroke-miterlimit="10" stroke-dasharray="" stroke-dashoffset="0" font-family="Pixel" font-weight="normal" text-anchor="start" style="mix-blend-mode: normal"><tspan x="0" dy="0"> J forJevil theme</tspan></text><text transform="translate(18.34535,252.84685) scale(0.5,0.5)" font-size="40" xml:space="preserve" fill="#000000" fill-rule="nonzero" stroke="none" stroke-width="1" stroke-linecap="butt" stroke-linejoin="miter" stroke-miterlimit="10" stroke-dasharray="" stroke-dashoffset="0" font-family="Pixel" font-weight="normal" text-anchor="start" style="mix-blend-mode: normal"><tspan x="0" dy="0"> P for fortnites kinda dying</tspan></text><path d="M204.36521,317.82833l-0.11389,0.13376c-0.94599,0.473 -6.23569,3.14914 -6.87585,3.31829c-0.96779,0.25572 -2.03189,-0.24278 -3.003,0c-1.08574,0.27143 -2.002,1.001 -3.003,1.5015c-5.31274,0.10482 -10.62047,0.107 -15.93403,0.107c-2.99607,0 -6.72033,0.50673 -9.64974,-0.05165c-1.55473,-0.29635 -2.93801,-1.27545 -4.5045,-1.5015c-2.07337,-0.29919 -4.22415,0.32437 -6.28429,-0.05535c-2.04294,-0.37655 -3.8414,-1.76848 -5.67511,-2.93413c-0.14745,0.00278 -0.29491,0.00541 -0.44239,0.00791c-0.02561,0.0036 -0.05123,0.00718 -0.07685,0.01076c-1.12154,0.15648 -2.43556,0.61752 -3.39715,0.01947c-0.61063,-0.37978 -1.06695,-0.92802 -1.46878,-1.53574c-0.30225,0.01891 -0.60048,0.00875 -0.88914,-0.07378c-5.68385,-1.62494 -11.49193,-3.98301 -17.22296,-5.74034c-0.66542,0.02322 -1.33195,0.04338 -1.99699,0.05545c-1.09455,3.61789 -6.98139,2.7914 -9.95366,2.7914c-10.68068,0 -21.36136,0 -32.04204,0c-3.33333,0 -6.81829,0.99391 -10,0h-3.003c-1.38071,0 -2.5,-1.11929 -2.5,-2.5c0,-1.38071 1.11929,-2.5 2.5,-2.5h3.003c0.79167,-0.2473 1.60211,-0.37154 2.42432,-0.41864c0.22215,-0.07135 0.44368,-0.1481 0.66496,-0.2272c-0.61556,-0.5923 -1.08328,-1.49238 -1.08328,-2.86017c0,-0.86151 0.18555,-1.53747 0.47672,-2.06784c-0.73258,-0.15231 -1.97972,-0.67091 -1.97972,-2.43666c0,-2.5 2.5,-2.5 2.5,-2.5c4.70805,0 10.72326,-1.08254 15.31814,0h1.19837v0.17328l0.40046,-0.141c0.08496,0.02779 0.16991,0.05558 0.25487,0.08337c0.68276,-1.54962 2.25172,-3.04251 4.02376,-4.94859c1.31312,-1.41245 2.55702,-3.04615 4.3007,-3.87009c1.36945,-0.64711 3.01979,-0.35049 4.53374,-0.30448c1.71279,0.05205 3.63775,-0.28625 5.10593,0.5974c1.38527,0.83375 1.63754,2.80105 2.64355,4.06677c0.74801,0.94112 1.7596,1.64076 2.58646,2.51342c0.60132,0.63462 1.28345,1.21934 1.92631,1.83143c22.93961,0 45.87922,0 68.81884,0c7.12844,0 14.25689,0 21.38533,0c4.16415,-3.0441 8.63464,-6.17913 13.73169,-7.4005c0.56048,-0.1343 5.95296,-0.107 6.92502,-0.107c2.99817,0 6.443,-0.4112 9.40316,0.01947c2.83063,0.41182 5.65705,0.92714 8.4115,1.69854c0.9534,0.26701 1.66276,1.15424 2.62387,1.392c0.97171,0.24039 2.03189,-0.24278 3.003,0c0.96144,0.24036 1.89736,0.68145 2.8455,1.00447c0.88373,-0.17138 1.71004,-0.21604 2.24149,0.39003l7.003,4c-0.27285,0.15585 -0.54289,0.31785 -0.81112,0.48385c1.43969,0.00254 2.87926,0.00874 4.31863,0.02065c2.30854,0.0191 4.85818,-0.92153 6.92502,0.107c2.59448,1.29111 3.98466,4.20901 5.97699,6.31351l-6.896,3.08099c-0.51572,0 -1.03144,0 -1.54716,0l1.50764,1.68959c-1.99337,0.33891 -3.965,0.9012 -5.96561,1.16567l-0.00087,0.14774c-0.49809,0 -1.00052,-0.00491 -1.5064,-0.01334c-0.07205,0.00296 -0.14415,0.00537 -0.2163,0.00722c-0.15278,0.00391 -0.37594,-0.00517 -0.65692,-0.02493c-4.55788,-0.1075 -9.35104,-0.43357 -13.74274,0.01159c-2.41314,0.24461 -4.72915,1.12993 -7.13084,1.45531c-0.45382,2.25005 -1.81154,3.3552 -5.85781,4.46316c-2.22665,0.60971 -4.61668,0.07134 -6.92502,0.107c-5.00501,0 -10.01001,0 -15.01502,0c-0.7526,0 -9.2481,0.01507 -9.64974,-0.05165c-0.66783,-0.11094 -1.31914,-0.28864 -1.96103,-0.5044zM152.77524,309.37538c-1.28792,0 -2.57583,0 -3.86375,0c0.43478,0.19123 0.87291,0.42275 1.31316,0.67754c0.90954,-0.15439 1.81729,-0.31955 2.72402,-0.49084c-0.05812,-0.05928 -0.11613,-0.12152 -0.17343,-0.18671z" fill="#66ff77" stroke-width="0.5"/><text transform="translate(20.49249,181.24024) scale(0.5,0.5)" font-size="40" xml:space="preserve" fill="#000000" fill-rule="nonzero" stroke="none" stroke-width="1" stroke-linecap="butt" stroke-linejoin="miter" stroke-miterlimit="10" stroke-dasharray="" stroke-dashoffset="0" font-family="Pixel" font-weight="normal" text-anchor="start" style="mix-blend-mode: normal"><tspan x="0" dy="0">S for Gas gas gas</tspan></text><text transform="translate(20,321.5) scale(0.5,0.5)" font-size="40" xml:space="preserve" fill="#000000" fill-rule="nonzero" stroke="none" stroke-width="1" stroke-linecap="butt" stroke-linejoin="miter" stroke-miterlimit="10" stroke-dasharray="" stroke-dashoffset="0" font-family="Pixel" font-weight="normal" text-anchor="start" style="mix-blend-mode: normal"><tspan x="0" dy="0">R for I'm only human after all</tspan></text><text transform="translate(277.5,86.5) scale(0.5,0.5)" font-size="40" xml:space="preserve" fill="#000000" fill-rule="nonzero" stroke="none" stroke-width="1" stroke-linecap="butt" stroke-linejoin="miter" stroke-miterlimit="10" stroke-dasharray="" stroke-dashoffset="0" font-family="Pixel" font-weight="normal" text-anchor="start" style="mix-blend-mode: normal"><tspan x="0" dy="0">F for Always has</tspan><tspan x="0" dy="46.15px">been meme song</tspan><tspan x="0" dy="46.15px">(added it here</tspan><tspan x="0" dy="46.15px">cuz of the patch)</tspan></text></g></g></svg>